<svg xmlns="http://www.w3.org/2000/svg" version="1.1" xmlns:xlink="http://www.w3.org/1999/xlink" xmlns:svgjs="http://svgjs.dev/svgjs" width="1920" height="1080" preserveAspectRatio="none" viewBox="0 0 1920 1080"><g mask="url(&quot;#SvgjsMask11496&quot;)" fill="none"><rect width="1920" height="1080" x="0" y="0" fill="#0e2a47"></rect><path d="M1785.49 907.52a5.6 5.6 0 1 0-0.5-11.19 5.6 5.6 0 1 0 0.5 11.19zM1784.78 891.53a5.6 5.6 0 1 0-0.51-11.18 5.6 5.6 0 1 0 0.51 11.18zM1784.06 875.55a5.6 5.6 0 1 0-0.5-11.19 5.6 5.6 0 1 0 0.5 11.19zM1783.34 859.57a5.6 5.6 0 1 0-0.5-11.19 5.6 5.6 0 1 0 0.5 11.19zM1802.91 938.77a5.6 5.6 0 1 0-0.5-11.19 5.6 5.6 0 1 0 0.5 11.19zM1802.2 922.79a5.6 5.6 0 1 0-0.51-11.19 5.6 5.6 0 1 0 0.51 11.19zM1801.48 906.8a5.6 5.6 0 1 0-0.5-11.19 5.6 5.6 0 1 0 0.5 11.19zM1800.76 890.82a5.6 5.6 0 1 0-0.5-11.19 5.6 5.6 0 1 0 0.5 11.19z" fill="#e73635"></path><rect width="660" height="660" clip-path="url(&quot;#SvgjsClipPath11497&quot;)" x="291.46" y="1.92" fill="url(&quot;#SvgjsPattern11498&quot;)" transform="rotate(154.15, 621.46, 331.92)"></rect><circle r="90" cx="167.36" cy="547.19" stroke="#037b0b" stroke-width="1.6"></circle><rect width="713.44" height="713.44" clip-path="url(&quot;#SvgjsClipPath11499&quot;)" x="1027.78" y="265.47" fill="url(&quot;#SvgjsPattern11500&quot;)" transform="rotate(138.42, 1384.5, 622.19)"></rect><rect width="338.52" height="338.52" clip-path="url(&quot;#SvgjsClipPath11501&quot;)" x="974.53" y="310.28" fill="url(&quot;#SvgjsPattern11502&quot;)" transform="rotate(244.21, 1143.79, 479.54)"></rect><rect width="444" height="444" clip-path="url(&quot;#SvgjsClipPath11503&quot;)" x="421.1" y="312.72" fill="url(&quot;#SvgjsPattern11504&quot;)" transform="rotate(266.35, 643.1, 534.72)"></rect><path d="M198.25 523.61 L220.83999999999997 736.8L291.7288642743605 548.0211357256394z" stroke="#d3b714" stroke-width="2.73"></path><path d="M1423.31 617.49 L1194.6499999999999 461.03999999999996L1197.8847460121826 650.3602539878174z" fill="#d3b714"></path></g><defs><mask id="SvgjsMask11496"><rect width="1920" height="1080" fill="#ffffff"></rect></mask><pattern x="0" y="0" width="6" height="6" patternUnits="userSpaceOnUse" id="SvgjsPattern11498"><path d="M3 1L3 5M1 3L5 3" stroke="#d3b714" fill="none" stroke-width="1"></path></pattern><clipPath id="SvgjsClipPath11497"><circle r="165" cx="621.46" cy="331.92"></circle></clipPath><pattern x="0" y="0" width="713.44" height="6.86" patternUnits="userSpaceOnUse" id="SvgjsPattern11500"><rect width="713.44" height="3.43" x="0" y="0" fill="#e73635"></rect><rect width="713.44" height="3.43" x="0" y="3.43" fill="rgba(0, 0, 0, 0)"></rect></pattern><clipPath id="SvgjsClipPath11499"><circle r="178.36" cx="1384.5" cy="622.19"></circle></clipPath><pattern x="0" y="0" width="13.02" height="13.02" patternUnits="userSpaceOnUse" id="SvgjsPattern11502"><path d="M0 13.02L6.51 0L13.02 13.02" stroke="#e73635" fill="none"></path></pattern><clipPath id="SvgjsClipPath11501"><circle r="84.63" cx="1143.79" cy="479.54"></circle></clipPath><pattern x="0" y="0" width="444" height="6" patternUnits="userSpaceOnUse" id="SvgjsPattern11504"><rect width="444" height="3" x="0" y="0" fill="#037b0b"></rect><rect width="444" height="3" x="0" y="3" fill="rgba(0, 0, 0, 0)"></rect></pattern><clipPath id="SvgjsClipPath11503"><circle r="111" cx="643.1" cy="534.72"></circle></clipPath></defs></svg>