<svg id="visual" viewBox="0 0 1920 1080" width="1920" height="1080" xmlns="http://www.w3.org/2000/svg" xmlns:xlink="http://www.w3.org/1999/xlink" version="1.1"><rect x="0" y="0" width="1920" height="1080" fill="#001220"></rect><defs><linearGradient id="grad1_0" x1="43.8%" y1="0%" x2="100%" y2="100%"><stop offset="14.444444444444446%" stop-color="#001220" stop-opacity="1"></stop><stop offset="85.55555555555554%" stop-color="#001220" stop-opacity="1"></stop></linearGradient></defs><defs><linearGradient id="grad2_0" x1="0%" y1="0%" x2="56.3%" y2="100%"><stop offset="14.444444444444446%" stop-color="#001220" stop-opacity="1"></stop><stop offset="85.55555555555554%" stop-color="#001220" stop-opacity="1"></stop></linearGradient></defs><g transform="translate(1920, 0)"><path d="M0 972C-140.1 972.5 -280.2 973 -372 898C-463.7 823 -507.1 672.6 -569.9 569.9C-632.8 467.2 -715 412.3 -785.3 325.3C-855.6 238.3 -913.8 119.1 -972 0L0 0Z" fill="#0066FF"></path></g><g transform="translate(0, 1080)"><path d="M0 -972C101.7 -907.8 203.3 -843.6 335.6 -810.2C467.9 -776.9 630.9 -774.5 687.3 -687.3C743.8 -600.2 693.7 -428.3 723.4 -299.6C753.1 -171 862.5 -85.5 972 0L0 0Z" fill="#0066FF"></path></g></svg>