<svg id="visual" viewBox="0 0 1920 1080" width="1920" height="1080" xmlns="http://www.w3.org/2000/svg" xmlns:xlink="http://www.w3.org/1999/xlink" version="1.1"><rect x="0" y="0" width="1920" height="1080" fill="#001220"></rect><defs><linearGradient id="grad1_0" x1="43.8%" y1="0%" x2="100%" y2="100%"><stop offset="14.444444444444446%" stop-color="#0066ff" stop-opacity="1"></stop><stop offset="85.55555555555554%" stop-color="#0066ff" stop-opacity="1"></stop></linearGradient></defs><defs><linearGradient id="grad1_1" x1="43.8%" y1="0%" x2="100%" y2="100%"><stop offset="14.444444444444446%" stop-color="#0066ff" stop-opacity="1"></stop><stop offset="85.55555555555554%" stop-color="#001220" stop-opacity="1"></stop></linearGradient></defs><defs><linearGradient id="grad2_0" x1="0%" y1="0%" x2="56.3%" y2="100%"><stop offset="14.444444444444446%" stop-color="#0066ff" stop-opacity="1"></stop><stop offset="85.55555555555554%" stop-color="#0066ff" stop-opacity="1"></stop></linearGradient></defs><defs><linearGradient id="grad2_1" x1="0%" y1="0%" x2="56.3%" y2="100%"><stop offset="14.444444444444446%" stop-color="#001220" stop-opacity="1"></stop><stop offset="85.55555555555554%" stop-color="#0066ff" stop-opacity="1"></stop></linearGradient></defs><g transform="translate(1920, 0)"><path d="M0 972C-130 963.5 -260 955 -372 898C-484 841 -578 735.5 -627.2 627.2C-676.4 518.9 -680.8 407.7 -730.8 302.7C-780.8 197.7 -876.4 98.8 -972 0L0 0Z" fill="#00408b"></path><path d="M0 486C-65 481.8 -130 477.5 -186 449C-242 420.5 -289 367.8 -313.6 313.6C-338.2 259.4 -340.4 203.9 -365.4 151.4C-390.4 98.8 -438.2 49.4 -486 0L0 0Z" fill="#0066ff"></path></g><g transform="translate(0, 1080)"><path d="M0 -972C127 -957.9 254 -943.9 372 -898C489.9 -852.1 598.9 -774.4 678.8 -678.8C758.7 -583.2 809.6 -469.7 853.7 -353.6C897.7 -237.5 934.8 -118.7 972 0L0 0Z" fill="#00408b"></path><path d="M0 -486C63.5 -479 127 -471.9 186 -449C245 -426.1 299.4 -387.2 339.4 -339.4C379.4 -291.6 404.8 -234.9 426.8 -176.8C448.8 -118.7 467.4 -59.4 486 0L0 0Z" fill="#0066ff"></path></g></svg>