<svg xmlns="http://www.w3.org/2000/svg" version="1.1" xmlns:xlink="http://www.w3.org/1999/xlink" xmlns:svgjs="http://svgjs.dev/svgjs" width="1920" height="1080" preserveAspectRatio="none" viewBox="0 0 1920 1080"><g mask="url(&quot;#SvgjsMask1010&quot;)" fill="none"><rect width="1920" height="1080" x="0" y="0" fill="#1e3266"></rect><path d="M2016 1080L0 1080 L0 721.14Q1.08 562.22, 160 563.31Q229.52 472.83, 320 542.34Q392.28 518.62, 416 590.9Q534.53 549.43, 576 667.96Q592.16 524.12, 736 540.28Q825.4 469.68, 896 559.08Q1007.55 510.63, 1056 622.19Q1149.24 619.43, 1152 712.68Q1214.95 615.63, 1312 678.57Q1365.18 635.76, 1408 688.94Q1474.17 595.12, 1568 661.29Q1605.21 538.5, 1728 575.71Q1762.17 513.88, 1824 548.06Q1897.84 525.89, 1920 599.73Q1989.84 573.57, 2016 643.4z" fill="rgba(0, 102, 255, 1)"></path><path d="M2048 1080L0 1080 L0 689.28Q124.44 717.72, 96 842.17Q93.94 744.11, 192 742.05Q232.12 686.16, 288 726.28Q360.61 702.89, 384 775.5Q453.81 685.31, 544 755.11Q588.87 639.98, 704 684.84Q810.74 631.58, 864 738.32Q995.41 709.74, 1024 841.15Q1044.54 701.69, 1184 722.23Q1247.49 625.72, 1344 689.2Q1423.08 672.28, 1440 751.35Q1498.53 713.88, 1536 772.41Q1571.49 647.9, 1696 683.4Q1752.41 643.81, 1792 700.22Q1877.63 689.85, 1888 775.47Q1943.98 671.45, 2048 727.43z" fill="#25467d"></path><path d="M2048 1080L0 1080 L0 947.31Q86.34 873.65, 160 959.99Q172.39 812.38, 320 824.77Q388.35 797.12, 416 865.47Q476.67 830.14, 512 890.82Q536.95 819.77, 608 844.71Q722.63 799.34, 768 913.96Q835.98 821.94, 928 889.93Q1054.64 856.58, 1088 983.22Q1097.19 832.41, 1248 841.61Q1336.24 769.85, 1408 858.08Q1503.93 794.02, 1568 889.95Q1661.47 823.42, 1728 916.9Q1839.95 868.86, 1888 980.81Q1903.45 836.26, 2048 851.71z" fill="#356cb1"></path><path d="M1952 1080L0 1080 L0 1090.26Q64.66 1058.92, 96 1123.58Q111.68 1043.26, 192 1058.93Q234.37 941.3, 352 983.66Q408.5 944.16, 448 1000.67Q584.29 976.96, 608 1113.25Q641.07 986.32, 768 1019.39Q788.78 944.17, 864 964.95Q905.03 909.99, 960 951.02Q1089.78 920.79, 1120 1050.57Q1126.84 961.41, 1216 968.25Q1288.42 880.67, 1376 953.1Q1515.7 932.8, 1536 1072.5Q1577 953.5, 1696 994.5Q1783.79 922.29, 1856 1010.07Q1941.51 999.58, 1952 1085.09z" fill="white"></path></g><defs><mask id="SvgjsMask1010"><rect width="1920" height="1080" fill="#ffffff"></rect></mask></defs></svg>