<svg id="visual" viewBox="0 0 960 540" width="960" height="540" xmlns="http://www.w3.org/2000/svg" xmlns:xlink="http://www.w3.org/1999/xlink" version="1.1"><rect x="0" y="0" width="960" height="540" fill="#0066FF"></rect><path d="M0 135L22.8 143C45.7 151 91.3 167 137 162C182.7 157 228.3 131 274 132.8C319.7 134.7 365.3 164.3 411.2 173.5C457 182.7 503 171.3 548.8 156.8C594.7 142.3 640.3 124.7 686 119.3C731.7 114 777.3 121 823 126C868.7 131 914.3 134 937.2 135.5L960 137L960 0L937.2 0C914.3 0 868.7 0 823 0C777.3 0 731.7 0 686 0C640.3 0 594.7 0 548.8 0C503 0 457 0 411.2 0C365.3 0 319.7 0 274 0C228.3 0 182.7 0 137 0C91.3 0 45.7 0 22.8 0L0 0Z" fill="#0E2A47" stroke-linecap="round" stroke-linejoin="miter"></path></svg>